<svg width="95" height="42" viewBox="-10 0 115 42" fill="none" xmlns="http://www.w3.org/2000/svg">
<path d="M31.572 23.1985H16.1394C15.9038 23.1985 15.7166 23.3857 15.7166 23.6213V28.0427C15.7166 28.2783 15.9038 28.4655 16.1394 28.4655H24.3238C24.1366 33.5453 21.1225 36.3238 16.4172 36.3238C10.5824 36.3238 7.3811 31.854 7.3811 24.7025C7.3811 17.5509 10.4374 12.8939 16.1816 12.8939C20.2286 12.8939 22.8138 14.7785 23.895 18.3965C23.9433 18.6321 24.1788 18.8193 24.4144 18.8193H30.9559C31.1915 18.8193 31.3304 18.6321 31.2821 18.3965C29.5425 11.4805 24.3178 7.43359 16.1333 7.43359C6.58984 7.43963 0 14.2167 0 24.6119C0 35.007 6.63212 41.7841 16.3749 41.7841C26.1177 41.7841 32.0915 35.8104 31.9948 23.6213C31.9948 23.3857 31.8076 23.1985 31.572 23.1985Z" fill="#EFEFEF"/>
<path d="M49.4511 21.5555L60.1301 8.47851C60.269 8.33959 60.1784 8.1463 59.9912 8.1463H52.3685C52.1329 8.1463 51.849 8.28523 51.7101 8.47851L42.0639 21.8877L42.2029 8.57515C42.2029 8.33959 42.0156 8.15234 41.78 8.15234H35.3835C35.1479 8.15234 34.9607 8.33959 34.9607 8.57515L35.1479 24.6179L34.9124 40.6606C34.9124 40.8962 35.0996 41.0834 35.3352 41.0834H41.78C42.0156 41.0834 42.2029 40.8962 42.2029 40.6606L42.1062 30.5433L44.8364 27.1548L50.1034 35.1036L53.8664 40.7512C54.0054 40.9384 54.2893 41.0834 54.5248 41.0834H62.522C62.7093 41.0834 62.8059 40.8962 62.7093 40.7512L49.439 21.5555H49.4511Z" fill="#EFEFEF"/>
<path d="M82.7081 23.5612C84.9249 21.8941 86.0846 19.5988 86.0846 16.8203C86.0846 11.2634 81.4518 7.39764 74.6989 7.39764C67.9459 7.39764 63.2648 11.3117 63.2648 16.8203C63.2648 19.5444 64.4185 21.8216 66.6473 23.5551C63.7782 25.3732 62.3708 27.8859 62.3708 31.1295C62.3708 37.3569 67.4084 41.6817 74.6626 41.6817C81.9169 41.6817 87.0027 37.2905 87.0027 31.1295C87.0027 27.9041 85.5591 25.3853 82.7142 23.5612H82.7081ZM74.6989 35.5993C71.558 35.5993 69.4318 33.7147 69.4318 31.0268C69.4318 28.339 71.558 26.4484 74.6989 26.4484C77.8398 26.4484 79.9357 28.3269 79.9357 31.0268C79.9357 33.7268 77.8518 35.5993 74.6989 35.5993Z" fill="#EFEFEF"/>
<path d="M91.086 0.21582C88.7786 0.21582 87.1296 1.88895 87.1296 4.14798C87.1296 6.40701 88.7786 8.08618 91.086 8.08618C93.3933 8.08618 95 6.41305 95 4.14798C95 1.88291 93.3812 0.21582 91.086 0.21582Z" fill="#EFEFEF"/>
</svg>
