<svg viewBox="-50 -50 950 950" xmlns="http://www.w3.org/2000/svg"><g fill="#007978"><path d="m794.78 0c-22.41 0-41.59 13.76-49.61 33.29l-455.23 86.05c-9.55-14.79-26.14-24.6-45.05-24.6-29.62 0-53.62 24.01-53.62 53.62s22.02 51.51 49.88 53.43l54.66 142.72-208.27 133.49c-9.24-7.56-21.05-12.11-33.92-12.11-29.62 0-53.62 24.01-53.62 53.62s24.01 53.62 53.62 53.62c8.77 0 17.03-2.15 24.33-5.88l363.21 221.33c-.02.64-.1 1.27-.1 1.92 0 29.62 24.01 53.62 53.62 53.62s53.62-24.01 53.62-53.62c0-26.97-19.93-49.22-45.85-53l-142.43-371.89 411.53-263.72c7.04 3.39 14.9 5.35 23.24 5.35 29.62 0 53.62-24.01 53.62-53.62s-24.01-53.62-53.63-53.62zm-352.03 728.17-332.36-202.54 204.58-131.12 127.78 333.65zm-101.86-412.53-52.22-136.36c1.6-2.26 3.01-4.65 4.25-7.14l385.62-72.89-337.64 216.4z"/></g></svg>